<svg id="icons" enable-background="new 0 0 64 64" height="64" viewBox="0 0 64 64" width="64" xmlns="http://www.w3.org/2000/svg">
<path d="m40.51 52c.83 0 1.5.67 1.5 1.5s-.67 1.5-1.5 1.5h-17.01c-.83 0-1.5-.67-1.5-1.5s.67-1.5 1.5-1.5z" fill="#94c1ff"/>
<path d="m63 7v2h-62v-2c0-1.1.9-2 2-2h58c1.11 0 2 .9 2 2z" fill="#d7e9ff"/><path d="m5 22h54v3h-54z" fill="#d7e9ff"/>
<path d="m33.5 28h25.5v3h-25.5z" fill="#d7e9ff"/><path d="m30.5 31v-3h-25.5v3zm28.5 3h-54v14h54zm0-3v-3h-25.5v3zm0-6v-3h-54v3zm4-16v50h-62v-50zm-20.99 44.5c0-.83-.67-1.5-1.5-1.5h-17.01c-.83 0-1.5.67-1.5 1.5s.67 1.5 1.5 1.5h17.01c.83 0 1.5-.67 1.5-1.5z" fill="#fff"/>
<path d="m5 28h25.5v3h-25.5z" fill="#d7e9ff"/><path d="m5 34h54v14h-54z" fill="#d7e9ff"/>
<g fill="#116fff"><path d="m1 7.998c-.553 0-1-.448-1-1 0-1.654 1.346-3 3-3 .553 0 1 .448 1 1s-.447 1-1 1c-.552 0-1 .449-1 1 0 .552-.447 1-1 1z"/><path d="m63 7.998c-.553 0-1-.448-1-1 0-.551-.448-1-1-1-.553 0-1-.448-1-1s.447-1 1-1c1.654 0 3 1.346 3 3 0 .552-.447 1-1 1z"/><path d="m61 5.998h-58c-.553 0-1-.448-1-1s.447-1 1-1h58c.553 0 1 .448 1 1s-.447 1-1 1z"/><path d="m4.03 7.998c-.553 0-1.005-.448-1.005-1s.442-1 .994-1h.011c.552 0 1 .448 1 1s-.448 1-1 1z"/><path d="m7.029 7.998c-.553 0-1.005-.448-1.005-1s.442-1 .994-1h.011c.552 0 1 .448 1 1s-.448 1-1 1z"/><path d="m10.032 7.998c-.553 0-1.005-.448-1.005-1s.442-1 .994-1h.011c.552 0 1 .448 1 1s-.448 1-1 1z"/><path d="m1 60.002c-.553 0-1-.447-1-1v-52.004c0-.552.447-1 1-1s1 .448 1 1v52.004c0 .553-.447 1-1 1z"/><path d="m63 60.002c-.553 0-1-.447-1-1v-52.004c0-.552.447-1 1-1s1 .448 1 1v52.004c0 .553-.447 1-1 1z"/><path d="m63 9.998h-62c-.553 0-1-.448-1-1s.447-1 1-1h62c.553 0 1 .448 1 1s-.447 1-1 1z"/><path d="m63 60.002h-62c-.553 0-1-.447-1-1s.447-1 1-1h62c.553 0 1 .447 1 1s-.447 1-1 1z"/><path d="m47.005 14.998h-30.01c-.553 0-1-.448-1-1s.447-1 1-1h30.01c.553 0 1 .448 1 1s-.447 1-1 1z"/><path d="m39.998 17.998h-15.996c-.553 0-1-.448-1-1s.447-1 1-1h15.996c.553 0 1 .448 1 1s-.447 1-1 1z"/><path d="m40.51 55.996h-17.014c-.553 0-1-.447-1-1s.447-1 1-1h17.014c.553 0 1 .447 1 1s-.447 1-1 1z"/><path d="m40.51 52.996h-17.014c-.553 0-1-.447-1-1s.447-1 1-1h17.014c.553 0 1 .447 1 1s-.447 1-1 1z"/><path d="m23.496 55.996c-1.379 0-2.5-1.121-2.5-2.5s1.121-2.5 2.5-2.5c.553 0 1 .447 1 1s-.447 1-1 1c-.275 0-.5.225-.5.5s.225.5.5.5c.553 0 1 .447 1 1s-.447 1-1 1z"/><path d="m40.51 55.996c-.553 0-1-.447-1-1s.447-1 1-1c.275 0 .5-.225.5-.5s-.225-.5-.5-.5c-.553 0-1-.447-1-1s.447-1 1-1c1.379 0 2.5 1.121 2.5 2.5s-1.121 2.5-2.5 2.5z"/><path d="m58.999 49.001h-53.998c-.553 0-1-.447-1-1v-14c0-.553.447-1 1-1h53.998c.553 0 1 .447 1 1v14c0 .553-.447 1-1 1zm-52.998-2h51.998v-12h-51.998z"/><path d="m30.501 31.998h-25.5c-.553 0-1-.448-1-1v-3c0-.552.447-1 1-1h25.5c.553 0 1 .448 1 1v3c0 .552-.447 1-1 1zm-24.5-2h23.5v-1h-23.5z"/><path d="m59 25.998h-53.999c-.553 0-1-.448-1-1v-3c0-.552.447-1 1-1h53.999c.553 0 1 .448 1 1v3c0 .552-.447 1-1 1zm-52.999-2h51.999v-1h-51.999z"/><path d="m59 31.998h-25.501c-.553 0-1-.448-1-1v-3c0-.552.447-1 1-1h25.501c.553 0 1 .448 1 1v3c0 .552-.447 1-1 1zm-24.501-2h23.501v-1h-23.501z"/></g></svg>
