<svg height="512" viewBox="0 0 512 512" width="512" xmlns="http://www.w3.org/2000/svg"><g><g fill="#57a4ff"><path d="m464 64h-416a32 32 0 0 0 -32 32v256a32 32 0 0 0 32 32h416a32 32 0 0 0 32-32v-256a32 32 0 0 0 -32-32zm-256 236.8v-153.6l128 76.8z"/><path d="m104 408h24v48h-24z"/></g><g fill="#004fac"><path d="m340.116 217.14-128-76.8a8 8 0 0 0 -12.116 6.86v153.6a8 8 0 0 0 12.116 6.86l128-76.8a8 8 0 0 0 0-13.72zm-124.116 69.53v-125.34l104.451 62.67z"/><path d="m464 56h-416a40.045 40.045 0 0 0 -40 40v256a40.045 40.045 0 0 0 40 40h416a40.045 40.045 0 0 0 40-40v-256a40.045 40.045 0 0 0 -40-40zm24 296a24.028 24.028 0 0 1 -24 24h-416a24.027 24.027 0 0 1 -24-24v-256a24.027 24.027 0 0 1 24-24h416a24.027 24.027 0 0 1 24 24z"/><path d="m448 424h-312v-16a8 8 0 0 0 -8-8h-24a8 8 0 0 0 -8 8v16h-64a8 8 0 0 0 0 16h64v16a8 8 0 0 0 8 8h24a8 8 0 0 0 8-8v-16h312a8 8 0 0 0 0-16zm-328 24h-8v-32h8z"/><path d="m480 424h-8a8 8 0 0 0 0 16h8a8 8 0 0 0 0-16z"/><path d="m104 88h-56a8 8 0 0 0 0 16h56a8 8 0 0 0 0-16z"/><path d="m136 88h-8a8 8 0 0 0 0 16h8a8 8 0 0 0 0-16z"/></g></g></svg>
