<?xml version="1.0" encoding="iso-8859-1"?>
<!-- Generator: Adobe Illustrator 19.0.0, SVG Export Plug-In . SVG Version: 6.00 Build 0)  -->
<svg version="1.1" id="Capa_1" xmlns="http://www.w3.org/2000/svg" xmlns:xlink="http://www.w3.org/1999/xlink" x="0px" y="0px"
	 viewBox="0 0 512 512" style="enable-background:new 0 0 512 512;" xml:space="preserve">
<g transform="translate(-1)">
	<g transform="translate(12)">
		<path style="fill:#A4C2F7;" d="M304.76,409.6v76.8c-0.028,9.414-7.653,17.039-17.067,17.067H117.027
			c-7.482-0.008-14.087-4.885-16.299-12.032c-0.232-0.513-0.376-1.061-0.427-1.621c-0.244-1.121-0.359-2.266-0.341-3.413V366.933
			c-0.017-1.147,0.097-2.292,0.341-3.413c0.051-0.56,0.195-1.108,0.427-1.621c2.211-7.147,8.817-12.024,16.298-12.032H279.16
			l-4.693,4.693c3.075,3.381,4.753,7.803,4.693,12.373V435.2L304.76,409.6z"/>
		<path style="fill:#E3E7F2;" d="M279.16,366.933V486.4c0.514,8.811-6.132,16.407-14.933,17.067H114.894
			c-6.916-0.304-12.746-5.257-14.165-12.032c-0.232-0.513-0.376-1.061-0.427-1.621c-0.244-1.121-0.359-2.266-0.341-3.413V366.933
			c-0.017-1.147,0.097-2.292,0.341-3.413c0.051-0.56,0.195-1.108,0.427-1.621c1.419-6.775,7.249-11.728,14.165-12.032h149.333
			c3.918,0.071,7.629,1.772,10.24,4.693C277.542,357.941,279.22,362.363,279.16,366.933L279.16,366.933z"/>
		<path style="fill:#A4C2F7;" d="M304.76,366.933V409.6l-25.6,25.6v-68.267c0.059-4.57-1.618-8.992-4.693-12.373l4.693-4.693h8.533
			C297.108,349.894,304.733,357.519,304.76,366.933z"/>
		<g>
			<path style="fill:#E3E7F2;" d="M279.16,366.933V435.2l-68.267,68.267H125.56L274.467,354.56
				C277.542,357.941,279.22,362.363,279.16,366.933L279.16,366.933z"/>
			<path style="fill:#E3E7F2;" d="M193.827,349.867L99.96,443.733v-76.8c0.028-9.414,7.652-17.039,17.067-17.067H193.827z"/>
		</g>
		<g>
			<path style="fill:#A4C2F7;" d="M296.227,162.133h-179.2c-7.482-0.008-14.087-4.885-16.299-12.032
				c-0.232-0.513-0.376-1.061-0.427-1.621c-0.244-1.121-0.359-2.266-0.341-3.413V25.6c-0.017-1.147,0.097-2.292,0.341-3.413
				c0.051-0.56,0.195-1.108,0.427-1.621c2.211-7.148,8.817-12.024,16.299-12.032h332.8L296.227,162.133z"/>
			<path style="fill:#A4C2F7;" d="M475.427,68.267v76.8c-0.028,9.414-7.652,17.039-17.067,17.067h-76.8L475.427,68.267z"/>
		</g>
		<g>
			<path style="fill:#E3E7F2;" d="M296.227,162.133H115.918c-7.184-0.163-13.386-5.076-15.189-12.032
				c-0.232-0.513-0.376-1.061-0.427-1.621c-0.244-1.121-0.359-2.266-0.341-3.413V25.6c-0.017-1.147,0.097-2.292,0.341-3.413
				c0.051-0.56,0.195-1.108,0.427-1.621c1.803-6.956,8.005-11.869,15.189-12.032H433.87c4.208,0.033,8.218,1.792,11.093,4.864
				L296.227,162.133z"/>
			<path style="fill:#E3E7F2;" d="M449.827,93.867v51.2c0.274,9.107-6.853,16.728-15.957,17.067H381.56L449.827,93.867z"/>
			<polygon style="fill:#E3E7F2;" points="364.494,8.533 210.894,162.133 125.56,162.133 279.16,8.533 			"/>
		</g>
		<path style="fill:#A4C2F7;" d="M475.427,25.6v42.667l-25.6,25.6V25.6c0.014-2.436-0.48-4.848-1.451-7.083
			c-0.771-1.925-1.933-3.668-3.413-5.12l4.864-4.864h8.533C467.775,8.561,475.399,16.186,475.427,25.6z"/>
		<g>
			<path style="fill:#E3E7F2;" d="M449.827,25.6v68.267l-68.267,68.267h-85.333L444.963,13.397c1.48,1.452,2.642,3.195,3.413,5.12
				C449.347,20.752,449.841,23.164,449.827,25.6z"/>
			<path style="fill:#E3E7F2;" d="M193.827,8.533L99.96,102.4V25.6c0.028-9.414,7.652-17.039,17.067-17.067H193.827z"/>
		</g>
		<g>
			<path style="fill:#FFFFFF;" d="M99.96,362.667v128c0,7.04,7.68,12.8,17.067,12.8h22.784c-7.456,0.361-13.812-5.348-14.251-12.8
				v-128c0.438-7.452,6.795-13.161,14.251-12.8h-22.784C107.641,349.867,99.96,355.627,99.96,362.667z"/>
			<path style="fill:#FFFFFF;" d="M99.96,21.333v128c0,7.04,7.68,12.8,17.067,12.8h22.784c-7.456,0.361-13.812-5.348-14.251-12.8
				v-128c0.438-7.452,6.795-13.161,14.251-12.8h-22.784C107.64,8.533,99.96,14.293,99.96,21.333z"/>
		</g>
	</g>
	<g>
		<path style="fill:#428DFF;" d="M129.027,341.333c-14.132,0.015-25.585,11.468-25.6,25.6V486.4
			c0.015,14.132,11.468,25.585,25.6,25.6h170.667c14.132-0.015,25.585-11.468,25.6-25.6V366.933
			c-0.015-14.132-11.468-25.585-25.6-25.6H129.027z M129.027,358.4h56.2l-64.733,64.733v-56.2
			C120.498,362.222,124.316,358.405,129.027,358.4L129.027,358.4z M120.494,486.4v-39.133L209.36,358.4h61.2L134.027,494.933h-5
			C124.316,494.929,120.498,491.111,120.494,486.4z M299.694,494.933h-56.2l64.733-64.733v56.2
			C308.222,491.111,304.405,494.929,299.694,494.933z M308.227,366.933v39.133l-88.867,88.867h-61.2L294.694,358.4h5
			C304.405,358.405,308.222,362.222,308.227,366.933L308.227,366.933z"/>
		<path style="fill:#428DFF;" d="M129.027,0c-14.132,0.015-25.585,11.468-25.6,25.6v119.467c0.015,14.132,11.468,25.585,25.6,25.6
			H470.36c14.132-0.015,25.585-11.468,25.6-25.6V25.6c-0.015-14.132-11.468-25.585-25.6-25.6H129.027z M441.227,17.067
			L304.694,153.6h-61.2L380.027,17.067H441.227z M219.36,153.6h-61.2L294.694,17.067h61.2L219.36,153.6z M129.027,17.067h56.2
			L120.494,81.8V25.6C120.498,20.889,124.316,17.071,129.027,17.067z M120.494,145.067v-39.133l88.867-88.867h61.2L134.027,153.6h-5
			C124.316,153.595,120.498,149.778,120.494,145.067z M470.36,153.6h-56.2l64.733-64.733v56.2
			C478.889,149.778,475.071,153.595,470.36,153.6L470.36,153.6z M478.894,25.6v39.133L390.027,153.6h-61.2L465.36,17.067h5
			C475.071,17.071,478.889,20.889,478.894,25.6L478.894,25.6z"/>
		<path style="fill:#428DFF;" d="M32.66,309.7c-2.149-2.188-5.307-3.055-8.271-2.27c-2.965,0.785-5.28,3.1-6.065,6.065
			c-0.785,2.965,0.082,6.122,2.27,8.271l34.126,34.126c0.793,0.792,1.735,1.42,2.771,1.847l0.043,0.024
			c2.072,0.851,4.397,0.848,6.467-0.009l0.027-0.005l0.023-0.014c0.079-0.033,0.137-0.094,0.215-0.129
			c0.83-0.381,1.593-0.896,2.258-1.522c0.083-0.077,0.198-0.111,0.278-0.192l34.126-34.126c3.281-3.341,3.256-8.701-0.054-12.012
			c-3.311-3.311-8.671-3.335-12.012-0.054l-19.567,19.566V182.733L88.861,202.3c3.338,3.296,8.711,3.279,12.029-0.038
			c3.317-3.317,3.334-8.691,0.038-12.029l-34.126-34.126c-0.08-0.08-0.194-0.115-0.278-0.192c-0.665-0.627-1.428-1.141-2.258-1.522
			c-0.077-0.035-0.136-0.096-0.215-0.129l-0.023-0.014l-0.03-0.007c-0.074-0.03-0.153-0.028-0.228-0.057
			c-0.862-0.319-1.769-0.496-2.687-0.523c-0.29-0.001-0.579,0.014-0.867,0.044c-0.722,0.045-1.435,0.184-2.121,0.413
			c-0.196,0.065-0.402,0.06-0.594,0.139c-0.116,0.048-0.206,0.133-0.32,0.186c-0.897,0.399-1.718,0.952-2.424,1.634l-0.037,0.029
			l-34.126,34.126c-3.281,3.341-3.256,8.701,0.054,12.012c3.311,3.311,8.671,3.335,12.012,0.054l19.567-19.566v146.533L32.66,309.7z
			"/>
	</g>
</g>
<g>
</g>
<g>
</g>
<g>
</g>
<g>
</g>
<g>
</g>
<g>
</g>
<g>
</g>
<g>
</g>
<g>
</g>
<g>
</g>
<g>
</g>
<g>
</g>
<g>
</g>
<g>
</g>
<g>
</g>
</svg>
