<?xml version="1.0" encoding="iso-8859-1"?>
<!-- Generator: Adobe Illustrator 19.0.0, SVG Export Plug-In . SVG Version: 6.00 Build 0)  -->
<svg version="1.1" id="Capa_1" xmlns="http://www.w3.org/2000/svg" xmlns:xlink="http://www.w3.org/1999/xlink" x="0px" y="0px"
	 viewBox="0 0 512.014 512.014" style="enable-background:new 0 0 512.014 512.014;" xml:space="preserve">
<g>
	<g transform="translate(1 1)">
		<path style="fill:#A4C2F7;" d="M438.476,84.337v384c0.002,9.053-3.593,17.737-9.995,24.138
			c-6.402,6.402-15.085,9.997-24.138,9.995h-256c-2.826,0.026-5.641-0.347-8.363-1.109c-15.163-3.772-25.797-17.399-25.771-33.024
			V230.854l180.65-180.651h109.483c9.053-0.002,17.737,3.593,24.139,9.995C434.883,66.6,438.478,75.284,438.476,84.337z"/>
		<path style="fill:#E3E7F2;" d="M412.876,84.337v384c0.002,9.053-3.593,17.737-9.995,24.138
			c-6.402,6.402-15.085,9.997-24.138,9.995h-230.4c-2.826,0.026-5.641-0.347-8.363-1.109c-15.163-3.772-25.797-17.399-25.771-33.024
			V230.854l180.65-180.651h83.883c9.053-0.002,17.737,3.593,24.139,9.995S412.878,75.284,412.876,84.337z"/>
		<path style="fill:#A4C2F7;" d="M438.476,129.393v163.072c-8.394-1.987-16.976-3.074-25.6-3.243V119.409
			C422.085,120.64,430.865,124.064,438.476,129.393z"/>
		<path style="fill:#E3E7F2;" d="M412.876,119.409v169.813c-9.157-0.294-18.317,0.45-27.307,2.218
			c-15.411,2.803-29.74,9.834-41.387,20.31c-8.765,7.93-15.447,17.894-19.456,29.013c-4.096,12.032-6.741,24.32-16.469,33.536
			c-12.373,11.605-30.379,13.312-44.544,21.931c-15.59,10.453-27.173,25.886-32.854,43.776c-6.546,20.185-7.548,41.759-2.9,62.464
			h-79.617c-2.826,0.026-5.641-0.347-8.363-1.109c-15.163-3.772-25.797-17.399-25.771-33.024v-34.133
			c23.467-3.669,79.872-19.285,76.629-84.053c-2.475-51.371-25.6-60.075-19.883-89.856c9.375,2.164,18.965,3.252,28.587,3.243
			c50.491,0.028,96.275-29.644,116.872-75.742c20.597-46.099,12.153-100-21.555-137.591h58.283
			c2.987,19.2,14.165,68.267,47.957,68.267C405.045,118.43,408.986,118.744,412.876,119.409z"/>
		<path style="fill:#A4C2F7;" d="M327.542,135.537c-0.026,70.682-57.318,127.974-128,128c-4.191,0.033-8.381-0.195-12.544-0.683
			c-0.171,0-0.341,0.085-0.513,0c-65.292-6.688-114.943-61.683-114.943-127.317S121.193,14.907,186.486,8.22
			c0.171-0.085,0.341,0,0.513,0c4.163-0.487,8.353-0.715,12.544-0.683C270.224,7.563,327.517,64.855,327.542,135.537z"/>
		
			<linearGradient id="SVGID_1_" gradientUnits="userSpaceOnUse" x1="-49.6426" y1="651.2874" x2="-48.9127" y2="650.6273" gradientTransform="matrix(230.3993 0 0 -254.7105 11540.4209 165941.3906)">
			<stop  offset="0" style="stop-color:#D4E1F4"/>
			<stop  offset="0.1717" style="stop-color:#D4E1F4"/>
			<stop  offset="0.2" style="stop-color:#D4E1F4"/>
			<stop  offset="0.2001" style="stop-color:#DAE4F4"/>
			<stop  offset="0.2007" style="stop-color:#EBEBF4"/>
			<stop  offset="0.2014" style="stop-color:#F6F1F4"/>
			<stop  offset="0.2023" style="stop-color:#FDF4F4"/>
			<stop  offset="0.205" style="stop-color:#FFF5F4"/>
			<stop  offset="0.2522" style="stop-color:#FFF5F4"/>
			<stop  offset="0.26" style="stop-color:#FFF5F4"/>
			<stop  offset="0.26" style="stop-color:#D4E1F4"/>
			<stop  offset="0.3974" style="stop-color:#D4E1F4"/>
			<stop  offset="0.42" style="stop-color:#D4E1F4"/>
			<stop  offset="0.4201" style="stop-color:#DAE4F4"/>
			<stop  offset="0.4207" style="stop-color:#EBEBF4"/>
			<stop  offset="0.4214" style="stop-color:#F6F1F4"/>
			<stop  offset="0.4223" style="stop-color:#FDF4F4"/>
			<stop  offset="0.425" style="stop-color:#FFF5F4"/>
			<stop  offset="0.4894" style="stop-color:#FFF5F4"/>
			<stop  offset="0.5" style="stop-color:#FFF5F4"/>
			<stop  offset="0.5" style="stop-color:#F9F2F4"/>
			<stop  offset="0.5001" style="stop-color:#E8EBF4"/>
			<stop  offset="0.5003" style="stop-color:#DDE5F4"/>
			<stop  offset="0.5005" style="stop-color:#D6E2F4"/>
			<stop  offset="0.501" style="stop-color:#D4E1F4"/>
			<stop  offset="0.7062" style="stop-color:#D4E1F4"/>
			<stop  offset="0.74" style="stop-color:#D4E1F4"/>
			<stop  offset="0.741" style="stop-color:#FFF5F4"/>
			<stop  offset="0.8346" style="stop-color:#FFF5F4"/>
			<stop  offset="0.85" style="stop-color:#FFF5F4"/>
			<stop  offset="0.851" style="stop-color:#D4E1F4"/>
		</linearGradient>
		<path style="fill:url(#SVGID_1_);" d="M301.942,135.537c-0.054,65.614-49.677,120.579-114.944,127.317
			c-0.171,0-0.341,0.085-0.513,0c-65.292-6.688-114.943-61.683-114.943-127.317S121.193,14.907,186.486,8.22
			c0.171-0.085,0.341,0,0.513,0C252.265,14.959,301.888,69.923,301.942,135.537z"/>
		<g>
			<path style="fill:#E3E7F2;" d="M196.044,101.574c-16.095,1.644-28.821,14.369-30.465,30.464l-0.94-0.085l-31.487-62.805
				l62.806,31.488L196.044,101.574z"/>
			<path style="fill:#E3E7F2;" d="M265.932,201.926l-62.806-31.488l-0.085-0.939c16.095-1.644,28.821-14.369,30.465-30.464
				l0.94,0.085L265.932,201.926z"/>
		</g>
		<path style="fill:#A4C2F7;" d="M233.505,139.036c-1.645,15.865-14.059,28.474-29.896,30.365
			c-15.837,1.891-30.872-7.439-36.206-22.47c-5.335-15.031,0.454-31.752,13.94-40.268c13.486-8.515,31.072-6.554,42.35,4.725
			C230.975,118.647,234.582,128.81,233.505,139.036z"/>
		<g>
			<path style="fill:#FFFFFF;" d="M97.179,135.537c-0.035,36.406,15.491,71.092,42.667,95.317v237.483
				c-0.027,15.625,10.608,29.252,25.771,33.024c2.721,0.762,5.537,1.135,8.363,1.109h-25.6c-2.826,0.026-5.641-0.347-8.363-1.109
				c-15.163-3.772-25.797-17.399-25.771-33.024V230.854c-37.782-33.775-52.064-86.67-36.415-134.872S136.106,13.362,186.523,8.22
				c0.171-0.085,0.341,0,0.513,0c8.338-0.91,16.75-0.91,25.087,0C146.856,14.959,97.233,69.923,97.179,135.537z"/>
			<polygon style="fill:#FFFFFF;" points="320.494,50.204 320.409,50.289 320.323,50.204 			"/>
			<path style="fill:#FFFFFF;" d="M320.326,50.204h-25.43l-0.085,0.085c-21.185-23.783-50.495-38.788-82.175-42.069
				c4.163-0.487,8.353-0.715,12.544-0.683C261.524,7.56,296.134,23.081,320.326,50.204z"/>
		</g>
	</g>
	<g>
		<path style="fill:#FFFFFF;" d="M123.742,231.854v110.933l0.121,128.848c0.752,8.213,5.411,15.561,12.518,19.745
			c3.487,2.089,7.437,3.281,11.497,3.471c4.435,0.169,10.533,0.047,15.718,0.085h226.811l15.887-0.058
			c4.061-0.134,8.03-1.242,11.574-3.23c7.18-4.057,11.981-11.309,12.912-19.503l0.162-3.121V116.658l-0.05-32.134
			c-0.26-8.246-4.473-15.864-11.319-20.469c-3.395-2.226-7.256-3.64-11.285-4.133c-1.021-0.113-1.997-0.11-3.073-0.185H295.86V42.67
			h109.356c1.617,0.073,3.349,0.107,5.008,0.296c6.737,0.803,13.192,3.17,18.851,6.913c11.411,7.674,18.436,20.368,18.876,34.113
			l0.059,32.667v352.367c-0.045,1.527-0.117,3.323-0.263,4.965c-2.29,21.036-19.681,37.199-40.828,37.945l-16.511,0.069h-226.81
			c-5.614-0.05-10.323,0.111-16.678-0.112c-6.778-0.344-13.369-2.338-19.201-5.807c-11.848-6.984-19.609-19.244-20.854-32.941
			l-0.188-130.356V231.854H123.742z"/>
		<g>
			<path style="fill:#428DFF;" d="M115.209,308.654c3.45-0.014,6.556-2.096,7.879-5.282c1.323-3.187,0.606-6.856-1.82-9.31
				l-1.279-1.025c-0.476-0.324-0.993-0.583-1.538-0.771c-0.484-0.246-1.002-0.417-1.537-0.508c-0.564-0.096-1.133-0.153-1.705-0.171
				c-2.259,0.031-4.423,0.915-6.059,2.475c-2.07,1.994-2.979,4.908-2.409,7.726c0.57,2.818,2.539,5.149,5.222,6.183
				C112.99,308.409,114.093,308.641,115.209,308.654z"/>
			<path style="fill:#428DFF;" d="M106.811,436.625l0.052,36.519c1.245,13.697,9.006,25.957,20.854,32.941
				c5.832,3.47,12.423,5.463,19.201,5.807c0.653,0.023,1.228,0.028,1.849,0.043c0.19,0.013,0.377,0.069,0.567,0.069
				c0.121,0,0.235-0.042,0.356-0.047c4.998,0.101,9.157,0.005,13.906,0.047h226.81l16.511-0.07
				c21.147-0.746,38.538-16.909,40.828-37.945c0.146-1.642,0.218-3.438,0.263-4.965V116.658l-0.058-32.667
				c-0.44-13.745-7.464-26.439-18.876-34.113c-5.659-3.742-12.115-6.11-18.852-6.912c-1.659-0.189-3.392-0.222-5.008-0.295H299.432
				C265.337,6.616,214.347-8.07,166.298,4.327s-85.57,49.918-97.966,97.967s2.289,99.039,38.344,133.134v30.561
				c0,4.713,3.821,8.533,8.533,8.533s8.533-3.82,8.533-8.533v-16.654c11.922,8.118,25.06,14.288,38.921,18.278
				c-0.112,11.613,2.667,23.071,8.087,33.342c7.629,15.829,11.907,33.062,12.567,50.621c2.465,49.195-32.604,66.882-59.498,73.239
				l-0.077-82.026v-8.533c0-4.713-3.821-8.533-8.533-8.533s-8.533,3.82-8.533,8.533v8.533l0.133,92.98
				c0.017,0.258-0.074,0.497-0.033,0.757L106.811,436.625z M430.942,456.874v12.151l-0.162,3.121
				c-0.931,8.194-5.732,15.446-12.911,19.503c-3.544,1.988-7.513,3.096-11.574,3.23l-15.888,0.058H236.119
				c-2.86-17.134-1.543-34.705,3.84-51.221c5.051-15.987,15.344-29.805,29.217-39.221c5.501-3.077,11.286-5.615,17.275-7.579
				c10.528-3.097,20.3-8.342,28.7-15.404c8.277-8.771,14.08-19.58,16.817-31.325c0.608-1.887,1.208-3.775,1.842-5.633
				c3.581-9.786,9.487-18.556,17.208-25.554c10.482-9.404,23.379-15.699,37.242-18.175c14.096-2.668,28.56-2.745,42.683-0.228
				V456.874z M401.164,59.737h4.051c1.076,0.075,2.052,0.072,3.073,0.185c4.029,0.493,7.891,1.907,11.285,4.133
				c6.846,4.605,11.058,12.222,11.319,20.469l0.05,31.825c-9.177-3.639-18.969-5.477-28.842-5.411
				c-23.106,0-33.515-32.061-37.675-51.2H401.164L401.164,59.737z M81.076,136.537c0-65.98,53.487-119.467,119.467-119.467
				s119.467,53.487,119.467,119.467s-53.487,119.467-119.467,119.467C134.593,255.93,81.15,202.486,81.076,136.537z
				 M200.367,350.737c-0.755-19.626-5.51-38.89-13.975-56.612c-3.762-7.082-6.07-14.844-6.788-22.831
				c53.723,8.43,107.318-15.872,136.376-61.838S344,104.65,313.339,59.737h33.656c4.886,25.033,18.601,68.267,55.105,68.267
				c10.089-0.212,20.049,2.288,28.842,7.239v48.412c-0.936,0.744-2.001,1.584-3.333,2.615c-1.792,1.383-2.96,3.422-3.248,5.668
				c-0.288,2.245,0.329,4.513,1.715,6.303c1.232,1.504,2.956,2.525,4.867,2.883v82.159c-15.269-2.371-30.831-2.101-46.008,0.799
				c-16.979,3.091-32.758,10.862-45.558,22.437c-9.769,8.909-17.22,20.064-21.708,32.5c-0.675,1.979-1.317,3.971-1.95,5.958
				c-1.959,8.955-6.186,17.257-12.275,24.109c-6.766,5.409-14.539,9.421-22.867,11.804c-7.052,2.337-13.854,5.367-20.309,9.045
				c-17.323,11.448-30.195,28.493-36.466,48.287c-6.005,18.269-7.684,37.684-4.904,56.713h-55.3
				c-0.599-0.004-1.237-0.002-1.856-0.003c-0.284-2.684-1.844-5.067-4.19-6.402c-1.98-1.097-4.315-1.361-6.49-0.733
				c-2.175,0.628-4.01,2.095-5.101,4.079c-0.5,0.904-0.916,1.661-1.33,2.415c-2.904-0.458-5.699-1.446-8.247-2.913
				c-7.107-4.184-11.766-11.532-12.518-19.745l-0.027-29.401C149.563,436.67,203.686,417.055,200.367,350.737z"/>
			<path style="fill:#428DFF;" d="M157.913,136.666c0.037,23.497,19.091,42.527,42.588,42.533l62.6,31.342
				c3.286,1.644,7.254,1,9.852-1.598c2.598-2.598,3.241-6.566,1.598-9.852l-31.379-62.683
				c-0.037-23.497-19.091-42.527-42.588-42.533l-62.6-31.342c-3.286-1.644-7.254-1-9.852,1.598
				c-2.598,2.598-3.241,6.566-1.598,9.852L157.913,136.666z M224.258,172.011c2.317-1.555,4.478-3.331,6.451-5.304
				c1.973-1.983,3.746-4.155,5.294-6.486l11.806,23.578L224.258,172.011z M218.642,154.641c-10.131,9.667-26.069,9.667-36.2,0
				c-7.323-7.321-9.514-18.333-5.552-27.899s13.297-15.805,23.652-15.805s19.69,6.238,23.652,15.805
				C228.156,136.308,225.965,147.32,218.642,154.641z M176.827,101.062c-2.317,1.555-4.478,3.331-6.451,5.304
				c-1.973,1.983-3.746,4.155-5.294,6.486l-11.806-23.578L176.827,101.062z"/>
			<path style="fill:#428DFF;" d="M392.484,229.308c1.561,0,3.092-0.429,4.425-1.242c4.942-3.004,9.633-6.004,14.025-8.904
				c3.933-2.596,5.017-7.888,2.421-11.821s-7.888-5.017-11.821-2.421c-4.225,2.792-8.75,5.675-13.492,8.563
				c-3.272,1.988-4.82,5.912-3.785,9.598C385.292,226.767,388.655,229.313,392.484,229.308z"/>
			<path style="fill:#428DFF;" d="M349.026,251.583c1.1-0.001,2.189-0.215,3.209-0.629c5.183-2.104,10.325-4.413,15.383-6.854
				c2.757-1.317,4.6-4.009,4.829-7.057c0.23-3.047-1.188-5.985-3.717-7.701c-2.529-1.716-5.782-1.948-8.529-0.609
				c-4.725,2.283-9.533,4.442-14.383,6.404c-3.783,1.537-5.948,5.536-5.166,9.544C341.434,248.688,344.943,251.581,349.026,251.583
				L349.026,251.583z"/>
			<path style="fill:#428DFF;" d="M306.626,274.741c2.222,0.002,4.357-0.864,5.95-2.412c3.484-3.408,7.29-6.47,11.366-9.142
				c2.554-1.664,4.027-4.565,3.863-7.609c-0.164-3.044-1.94-5.77-4.658-7.15c-2.719-1.38-5.967-1.205-8.521,0.459
				c-4.999,3.277-9.67,7.027-13.95,11.2c-2.488,2.423-3.261,6.111-1.954,9.328C300.028,272.633,303.153,274.739,306.626,274.741
				L306.626,274.741z"/>
			<path style="fill:#428DFF;" d="M274.126,313.254c1.968,1.118,4.3,1.407,6.482,0.805c2.182-0.603,4.035-2.048,5.151-4.017
				c2.625-4.629,5.3-9.225,8.108-13.687c2.496-3.99,1.292-9.247-2.693-11.752c-3.984-2.505-9.245-1.311-11.757,2.669
				c-2.942,4.679-5.75,9.492-8.508,14.354c-1.116,1.969-1.404,4.3-0.8,6.481C270.712,310.287,272.157,312.138,274.126,313.254z"/>
			<path style="fill:#428DFF;" d="M165.159,475.029c4.083,2.354,9.301,0.956,11.658-3.125c2.558-4.442,5.3-9.146,8.166-14.021
				c2.391-4.059,1.038-9.288-3.021-11.679c-4.059-2.391-9.288-1.038-11.679,3.021c-2.9,4.917-5.658,9.662-8.25,14.146
				c-1.132,1.96-1.439,4.29-0.853,6.477C161.767,472.034,163.198,473.898,165.159,475.029z"/>
			<path style="fill:#428DFF;" d="M189.992,432.916c1.921,1.197,4.239,1.582,6.444,1.071c2.205-0.512,4.117-1.879,5.314-3.8
				c2.85-4.575,5.75-9.154,8.65-13.667c1.666-2.564,1.833-5.823,0.438-8.543c-1.395-2.72-4.14-4.486-7.194-4.629
				c-3.054-0.142-5.951,1.36-7.594,3.939c-2.95,4.579-5.883,9.225-8.783,13.875c-1.197,1.92-1.583,4.237-1.072,6.441
				C186.706,429.808,188.072,431.719,189.992,432.916z"/>
			<path style="fill:#428DFF;" d="M221.526,393.47c2.746,0.003,5.326-1.315,6.933-3.541c3.267-4.533,6.475-8.8,9.567-12.688
				c2.932-3.691,2.316-9.06-1.375-11.992s-9.06-2.316-11.992,1.375c-3.242,4.087-6.617,8.563-10.05,13.321
				c-1.872,2.598-2.132,6.025-0.674,8.876C215.393,391.672,218.324,393.467,221.526,393.47L221.526,393.47z"/>
			<path style="fill:#428DFF;" d="M252.767,355.966c2.65,0.005,5.152-1.224,6.767-3.325c3.2-4.146,6.375-8.742,9.717-14.05
				c2.494-3.989,1.291-9.245-2.692-11.751c-3.982-2.506-9.241-1.316-11.758,2.659c-3.05,4.846-5.925,9.008-8.783,12.725
				c-1.984,2.575-2.333,6.053-0.9,8.971C246.551,354.113,249.517,355.963,252.767,355.966L252.767,355.966z"/>
		</g>
	</g>
</g>
<g>
</g>
<g>
</g>
<g>
</g>
<g>
</g>
<g>
</g>
<g>
</g>
<g>
</g>
<g>
</g>
<g>
</g>
<g>
</g>
<g>
</g>
<g>
</g>
<g>
</g>
<g>
</g>
<g>
</g>
</svg>
