<?xml version="1.0" encoding="iso-8859-1"?>
<!-- Generator: Adobe Illustrator 19.0.0, SVG Export Plug-In . SVG Version: 6.00 Build 0)  -->
<svg version="1.1" id="Capa_1" xmlns="http://www.w3.org/2000/svg" xmlns:xlink="http://www.w3.org/1999/xlink" x="0px" y="0px"
	 viewBox="0 0 512.022 512.022" style="enable-background:new 0 0 512.022 512.022;" xml:space="preserve">
<g transform="translate(0 -1)">
	<g transform="translate(1 1)">
		<path style="fill:#FFFFFF;" d="M58.745,9.409v2.645c-4.891,2.159-9.345,5.196-13.141,8.96
			c-7.979,8.029-12.458,18.888-12.459,30.208v370.432c-15.527,6.846-25.562,22.199-25.6,39.168v-409.6
			C7.51,39.896,11.994,29.023,20.003,21.014S38.885,8.521,50.211,8.556C53.078,8.535,55.939,8.821,58.745,9.409z"/>
		<g>
			<path style="fill:#E3E7F2;" d="M58.745,12.054v406.955c-2.806-0.588-5.667-0.874-8.533-0.853
				c-5.866,0.005-11.671,1.195-17.067,3.499V51.222c0.001-11.32,4.479-22.179,12.459-30.208C49.4,17.25,53.854,14.214,58.745,12.054
				L58.745,12.054z"/>
			<rect x="365.945" y="162.156" style="fill:#E3E7F2;" width="85.333" height="187.733"/>
			<path style="fill:#E3E7F2;" d="M502.478,460.822c-0.009,23.561-19.106,42.658-42.667,42.667h-93.867v-102.4h85.333v17.92
				c2.806-0.588,5.667-0.874,8.533-0.853C483.372,418.164,502.469,437.262,502.478,460.822L502.478,460.822z"/>
			<polygon style="fill:#E3E7F2;" points="314.745,396.737 314.745,503.489 207.993,503.489 			"/>
			<path style="fill:#E3E7F2;" d="M314.745,273.089v51.2l-179.2,179.2H50.211c-23.564,0-42.667-19.103-42.667-42.667
				c0-23.564,19.103-42.667,42.667-42.667c2.867-0.021,5.727,0.265,8.533,0.853v-145.92H314.745z"/>
		</g>
		<path style="fill:#FFFFFF;" d="M75.811,503.489h-25.6c-23.564,0-42.667-19.103-42.667-42.667
			c0-23.564,19.103-42.667,42.667-42.667c2.888,0.803,5.626,2.072,8.107,3.755c-18.348,8.247-28.442,28.19-24.225,47.86
			C38.311,489.439,55.695,503.49,75.811,503.489L75.811,503.489z"/>
		<g>
			<path style="fill:#E3E7F2;" d="M314.745,273.089v51.2l-179.2,179.2H75.811c-20.116,0.001-37.5-14.05-41.718-33.719
				c-4.218-19.669,5.877-39.612,24.225-47.86c3.755,2.133-1.023-4.096,0.427-3.755l8.107,0.939l-8.107-146.005H314.745z"/>
			<rect x="365.945" y="68.289" style="fill:#E3E7F2;" width="85.333" height="42.667"/>
			<polygon style="fill:#E3E7F2;" points="365.945,162.156 365.945,349.889 451.278,349.889 451.278,401.089 365.945,401.089 
				365.945,503.489 314.745,503.489 314.745,396.737 207.993,503.489 135.545,503.489 314.745,324.289 314.745,273.089 
				58.745,273.089 58.745,68.289 365.945,68.289 365.945,110.956 451.278,110.956 451.278,162.156 			"/>
			<path style="fill:#E3E7F2;" d="M502.478,51.222v409.6c-0.009-23.561-19.106-42.658-42.667-42.667
				c-2.867-0.021-5.727,0.265-8.533,0.853V9.409c2.806-0.588,5.667-0.874,8.533-0.853C483.372,8.564,502.469,27.662,502.478,51.222z
				"/>
		</g>
		<g>
			<polygon style="fill:#A4C2F7;" points="365.945,162.156 365.945,349.889 451.278,349.889 451.278,401.089 365.945,401.089 
				365.945,503.489 314.745,503.489 314.745,396.737 207.993,503.489 135.545,503.489 314.745,324.289 314.745,273.089 
				58.745,273.089 58.745,221.889 314.745,221.889 314.745,68.289 365.945,68.289 365.945,110.956 451.278,110.956 451.278,162.156 
							"/>
			<path style="fill:#A4C2F7;" d="M263.545,81.236c0,32.783-51.225,117.897-70.005,145.663c-1.558,2.209-4.092,3.523-6.795,3.523
				c-2.703,0-5.238-1.314-6.795-3.523c-18.779-27.766-70.005-112.881-70.005-145.663c1.169-41.264,35.534-73.786,76.8-72.68
				C228.01,7.45,262.376,39.972,263.545,81.236z"/>
		</g>
		<path style="fill:#E3E7F2;" d="M237.945,81.236c0,32.783-39.842,117.897-54.448,145.663c-0.889,2.134-2.974,3.523-5.285,3.523
			c-2.311,0-4.396-1.39-5.285-3.523c-14.606-27.766-54.448-112.881-54.448-145.663c0-40.14,26.743-72.68,59.733-72.68
			S237.945,41.096,237.945,81.236z"/>
		<circle style="fill:#7FACFA;" cx="186.745" cy="85.356" r="34.133"/>
		<g>
			<path style="fill:#A4C2F7;" d="M451.278,9.409v2.645c4.891,2.159,9.345,5.196,13.141,8.96
				c7.979,8.029,12.458,18.888,12.459,30.208v370.432c15.527,6.846,25.562,22.199,25.6,39.168v-409.6
				c0.035-11.327-4.449-22.199-12.458-30.208S471.138,8.521,459.811,8.556C456.945,8.535,454.084,8.821,451.278,9.409z"/>
			<path style="fill:#A4C2F7;" d="M434.211,503.489h25.6c23.564,0,42.667-19.103,42.667-42.667
				c0-23.564-19.103-42.667-42.667-42.667c-2.888,0.803-5.626,2.072-8.107,3.755c18.348,8.247,28.442,28.19,24.225,47.86
				C471.712,489.439,454.328,503.49,434.211,503.489L434.211,503.489z"/>
		</g>
	</g>
	<g>
		<path style="fill:#428DFF;" d="M8.545,103.422c-2.264,0.001-4.435-0.897-6.035-2.498c-1.601-1.601-2.499-3.772-2.498-6.035V52.222
			C-0.023,38.633,5.36,25.59,14.97,15.981S37.622,0.988,51.211,1.022c3.474-0.02,6.941,0.33,10.342,1.042
			c4.594,1.011,7.504,5.548,6.507,10.144c-0.996,4.597-5.524,7.521-10.124,6.539c-2.212-0.455-4.466-0.676-6.725-0.658
			c-9.064-0.035-17.766,3.549-24.175,9.958s-9.994,15.111-9.958,24.175v42.667c0.001,2.264-0.897,4.435-2.498,6.035
			C12.979,102.525,10.808,103.424,8.545,103.422z"/>
		<path style="fill:#428DFF;" d="M460.811,513.022h-409.6c-28.264-0.031-51.169-22.936-51.2-51.2V163.156
			c0-4.713,3.821-8.533,8.533-8.533s8.533,3.821,8.533,8.533v298.667c0.019,18.844,15.29,34.115,34.133,34.133h409.6
			c4.713,0,8.533,3.82,8.533,8.533S465.524,513.022,460.811,513.022L460.811,513.022z"/>
		<path style="fill:#428DFF;" d="M8.545,470.356c-2.264,0.001-4.435-0.897-6.035-2.498c-1.601-1.601-2.499-3.772-2.498-6.035
			c0.031-28.264,22.936-51.169,51.2-51.2c3.474-0.02,6.941,0.33,10.342,1.042c2.988,0.638,5.408,2.825,6.343,5.734
			c0.936,2.909,0.245,6.096-1.812,8.357c-2.056,2.26-5.164,3.249-8.148,2.593c-2.212-0.455-4.466-0.676-6.725-0.658
			c-18.844,0.019-34.115,15.29-34.133,34.133c0.001,2.264-0.897,4.435-2.498,6.035C12.979,469.458,10.808,470.357,8.545,470.356
			L8.545,470.356z"/>
		<path style="fill:#428DFF;" d="M460.811,513.022c-4.713,0-8.533-3.821-8.533-8.533s3.82-8.533,8.533-8.533
			c18.844-0.019,34.115-15.29,34.133-34.133v-409.6c-0.019-18.844-15.29-34.115-34.133-34.133c-2.259-0.018-4.513,0.203-6.725,0.658
			c-4.6,0.982-9.127-1.942-10.124-6.539c-0.996-4.597,1.914-9.133,6.507-10.144c3.401-0.712,6.867-1.061,10.342-1.042
			c28.264,0.031,51.169,22.936,51.2,51.2v409.6C511.98,490.087,489.075,512.992,460.811,513.022z"/>
		<path style="fill:#428DFF;" d="M503.478,470.356c-2.264,0.001-4.435-0.897-6.035-2.498c-1.601-1.601-2.499-3.772-2.498-6.035
			c-0.019-18.844-15.29-34.115-34.133-34.133c-2.259-0.018-4.513,0.203-6.725,0.658c-4.6,0.982-9.127-1.942-10.124-6.539
			c-0.996-4.597,1.914-9.133,6.507-10.144c3.401-0.712,6.867-1.061,10.342-1.042c28.264,0.031,51.169,22.936,51.2,51.2
			c0.001,2.264-0.897,4.435-2.498,6.035C507.913,469.458,505.742,470.357,503.478,470.356L503.478,470.356z"/>
		<path style="fill:#428DFF;" d="M59.745,428.539c-2.264,0.001-4.435-0.897-6.035-2.498s-2.499-3.772-2.498-6.035v-409.6
			c0-4.713,3.821-8.533,8.533-8.533s8.533,3.821,8.533,8.533v409.6c0.001,2.264-0.897,4.435-2.498,6.035
			C64.179,427.642,62.008,428.54,59.745,428.539z"/>
		<path style="fill:#428DFF;" d="M452.278,428.539c-2.264,0.001-4.435-0.897-6.035-2.498c-1.601-1.601-2.499-3.772-2.498-6.035
			v-409.6c0-4.713,3.82-8.533,8.533-8.533s8.533,3.821,8.533,8.533v409.6c0.001,2.264-0.897,4.435-2.498,6.035
			C456.713,427.642,454.542,428.54,452.278,428.539z"/>
		<path style="fill:#428DFF;" d="M452.278,77.822H263.353c-4.713,0-8.533-3.821-8.533-8.533c0-4.713,3.821-8.533,8.533-8.533
			h188.925c4.713,0,8.533,3.82,8.533,8.533C460.811,74.002,456.991,77.822,452.278,77.822z"/>
		<path style="fill:#428DFF;" d="M111.795,77.822h-52.05c-4.713,0-8.533-3.821-8.533-8.533c0-4.713,3.821-8.533,8.533-8.533h52.05
			c4.713,0,8.533,3.82,8.533,8.533C120.328,74.002,116.507,77.822,111.795,77.822z"/>
		<path style="fill:#428DFF;" d="M187.745,129.022c-23.564,0-42.667-19.103-42.667-42.667s19.103-42.667,42.667-42.667
			s42.667,19.103,42.667,42.667C230.384,109.908,211.297,128.995,187.745,129.022L187.745,129.022z M187.745,60.756
			c-10.354,0-19.689,6.237-23.651,15.803c-3.962,9.566-1.772,20.577,5.549,27.899c7.322,7.322,18.333,9.512,27.899,5.549
			c9.566-3.962,15.803-13.297,15.803-23.651C213.329,72.224,201.877,60.771,187.745,60.756z"/>
		<path style="fill:#428DFF;" d="M187.745,239.956c-5.545,0.027-10.742-2.702-13.867-7.283
			c-15.092-22.308-71.467-113.25-71.467-150.433c1.217-45.956,39.373-82.272,85.333-81.217c45.96-1.055,84.116,35.261,85.333,81.217
			c0,37.183-56.375,128.125-71.475,150.442C198.479,237.258,193.286,239.985,187.745,239.956z M187.745,18.089
			c-36.537-1.06-67.055,27.618-68.267,64.15c0,27.95,44.642,105.542,68.542,140.875c23.35-35.333,67.992-112.925,67.992-140.875
			C254.8,45.707,224.281,17.029,187.745,18.089z"/>
		<path style="fill:#428DFF;" d="M315.745,282.622h-256c-2.264,0.001-4.435-0.897-6.035-2.498c-1.601-1.601-2.499-3.772-2.498-6.035
			v-51.2c-0.001-2.264,0.897-4.435,2.498-6.035s3.772-2.499,6.035-2.498h117.842c4.713,0,8.533,3.821,8.533,8.533
			s-3.82,8.533-8.533,8.533H68.278v34.133h247.467c4.713,0,8.533,3.821,8.533,8.533
			C324.278,278.802,320.457,282.622,315.745,282.622z"/>
		<path style="fill:#428DFF;" d="M315.745,231.422H197.903c-4.713,0-8.533-3.82-8.533-8.533s3.821-8.533,8.533-8.533h117.842
			c4.713,0,8.533,3.821,8.533,8.533S320.457,231.422,315.745,231.422z"/>
		<path style="fill:#428DFF;" d="M452.278,120.489h-85.333c-4.713,0-8.533-3.821-8.533-8.533c0-4.713,3.82-8.533,8.533-8.533h85.333
			c4.713,0,8.533,3.821,8.533,8.533C460.811,116.669,456.991,120.489,452.278,120.489z"/>
		<path style="fill:#428DFF;" d="M452.278,171.689h-85.333c-4.713,0-8.533-3.82-8.533-8.533s3.82-8.533,8.533-8.533h85.333
			c4.713,0,8.533,3.821,8.533,8.533S456.991,171.689,452.278,171.689z"/>
		<path style="fill:#428DFF;" d="M452.278,359.422h-85.333c-4.713,0-8.533-3.82-8.533-8.533s3.82-8.533,8.533-8.533h85.333
			c4.713,0,8.533,3.82,8.533,8.533S456.991,359.422,452.278,359.422z"/>
		<path style="fill:#428DFF;" d="M452.278,410.622h-85.333c-4.713,0-8.533-3.82-8.533-8.533s3.82-8.533,8.533-8.533h85.333
			c4.713,0,8.533,3.82,8.533,8.533S456.991,410.622,452.278,410.622z"/>
		<path style="fill:#428DFF;" d="M208.995,513.022c-3.451-0.001-6.562-2.08-7.882-5.268c-1.32-3.188-0.591-6.858,1.849-9.298
			l106.75-106.75c2.151-2.176,5.303-3.033,8.26-2.247c2.957,0.786,5.267,3.096,6.053,6.053c0.786,2.957-0.071,6.109-2.247,8.26
			l-106.75,106.75C213.43,512.125,211.258,513.025,208.995,513.022z"/>
		<path style="fill:#428DFF;" d="M136.545,513.022c-3.451-0.001-6.562-2.08-7.882-5.268c-1.32-3.188-0.591-6.858,1.849-9.298
			l179.2-179.2c3.341-3.281,8.701-3.256,12.012,0.054c3.311,3.311,3.335,8.671,0.054,12.012l-179.2,179.2
			C140.979,512.125,138.808,513.025,136.545,513.022z"/>
		<path style="fill:#428DFF;" d="M315.745,231.422c-2.264,0.001-4.435-0.897-6.035-2.498c-1.601-1.601-2.499-3.772-2.498-6.035
			v-153.6c-0.001-2.264,0.897-4.435,2.498-6.035c1.601-1.601,3.772-2.499,6.035-2.498h51.2c2.264-0.001,4.435,0.897,6.035,2.498
			c1.601,1.601,2.499,3.772,2.498,6.035v42.667c0,4.713-3.82,8.533-8.533,8.533s-8.533-3.821-8.533-8.533V77.822h-34.133v145.067
			c0.001,2.264-0.897,4.435-2.498,6.035C320.179,230.525,318.008,231.424,315.745,231.422z"/>
		<path style="fill:#428DFF;" d="M366.945,513.022h-51.2c-2.264,0.001-4.435-0.897-6.035-2.498
			c-1.601-1.601-2.499-3.772-2.498-6.035v-106.75c0-4.713,3.821-8.533,8.533-8.533c4.713,0,8.533,3.82,8.533,8.533v98.217h34.133
			v-93.867c0-4.713,3.82-8.533,8.533-8.533s8.533,3.82,8.533,8.533v102.4c0.001,2.264-0.897,4.435-2.498,6.035
			C371.379,512.125,369.208,513.024,366.945,513.022L366.945,513.022z"/>
		<path style="fill:#428DFF;" d="M366.945,359.422c-2.264,0.001-4.435-0.897-6.035-2.498c-1.601-1.601-2.499-3.772-2.498-6.035
			V163.156c0-4.713,3.82-8.533,8.533-8.533s8.533,3.821,8.533,8.533v187.733c0.001,2.264-0.897,4.435-2.498,6.035
			C371.379,358.525,369.208,359.424,366.945,359.422L366.945,359.422z"/>
		<path style="fill:#428DFF;" d="M315.745,333.822c-2.264,0.001-4.435-0.897-6.035-2.498c-1.601-1.601-2.499-3.772-2.498-6.035
			v-51.2c0-4.713,3.821-8.533,8.533-8.533c4.713,0,8.533,3.821,8.533,8.533v51.2c0.001,2.264-0.897,4.435-2.498,6.035
			C320.179,332.925,318.008,333.824,315.745,333.822L315.745,333.822z"/>
		<circle style="fill:#428DFF;" cx="8.545" cy="129.022" r="8.533"/>
	</g>
</g>
<g>
</g>
<g>
</g>
<g>
</g>
<g>
</g>
<g>
</g>
<g>
</g>
<g>
</g>
<g>
</g>
<g>
</g>
<g>
</g>
<g>
</g>
<g>
</g>
<g>
</g>
<g>
</g>
<g>
</g>
</svg>
