<svg height="40pt" viewBox="0 0 496 496" width="40pt" xmlns="http://www.w3.org/2000/svg"><path d="m48 80h80v80h-80zm0 0" fill="#57a4ff"/><path d="m48 208h80v80h-80zm0 0" fill="#57a4ff"/><path d="m48 336h80v80h-80zm0 0" fill="#57a4ff"/><g fill="#004fac"><path d="m472 0h-448c-13.253906 0-24 10.746094-24 24v448c0 13.253906 10.746094 24 24 24h448c13.253906 0 24-10.746094 24-24v-448c0-13.253906-10.746094-24-24-24zm8 472c0 4.417969-3.582031 8-8 8h-448c-4.417969 0-8-3.582031-8-8v-448c0-4.417969 3.582031-8 8-8h448c4.417969 0 8 3.582031 8 8zm0 0"/><path d="m128 72h-80c-4.417969 0-8 3.582031-8 8v80c0 4.417969 3.582031 8 8 8h80c4.417969 0 8-3.582031 8-8v-80c0-4.417969-3.582031-8-8-8zm-8 80h-64v-64h64zm0 0"/><path d="m448 80h-288c-4.417969 0-8 3.582031-8 8s3.582031 8 8 8h288c4.417969 0 8-3.582031 8-8s-3.582031-8-8-8zm0 0"/><path d="m448 112h-288c-4.417969 0-8 3.582031-8 8s3.582031 8 8 8h288c4.417969 0 8-3.582031 8-8s-3.582031-8-8-8zm0 0"/><path d="m160 160h184c4.417969 0 8-3.582031 8-8s-3.582031-8-8-8h-184c-4.417969 0-8 3.582031-8 8s3.582031 8 8 8zm0 0"/><path d="m376 160c4.417969 0 8-3.582031 8-8s-3.582031-8-8-8h-8c-4.417969 0-8 3.582031-8 8s3.582031 8 8 8zm0 0"/><path d="m128 200h-80c-4.417969 0-8 3.582031-8 8v80c0 4.417969 3.582031 8 8 8h80c4.417969 0 8-3.582031 8-8v-80c0-4.417969-3.582031-8-8-8zm-8 80h-64v-64h64zm0 0"/><path d="m448 208h-288c-4.417969 0-8 3.582031-8 8s3.582031 8 8 8h288c4.417969 0 8-3.582031 8-8s-3.582031-8-8-8zm0 0"/><path d="m448 240h-288c-4.417969 0-8 3.582031-8 8s3.582031 8 8 8h288c4.417969 0 8-3.582031 8-8s-3.582031-8-8-8zm0 0"/><path d="m160 288h184c4.417969 0 8-3.582031 8-8s-3.582031-8-8-8h-184c-4.417969 0-8 3.582031-8 8s3.582031 8 8 8zm0 0"/><path d="m376 288c4.417969 0 8-3.582031 8-8s-3.582031-8-8-8h-8c-4.417969 0-8 3.582031-8 8s3.582031 8 8 8zm0 0"/><path d="m128 328h-80c-4.417969 0-8 3.582031-8 8v80c0 4.417969 3.582031 8 8 8h80c4.417969 0 8-3.582031 8-8v-80c0-4.417969-3.582031-8-8-8zm-8 80h-64v-64h64zm0 0"/><path d="m448 336h-288c-4.417969 0-8 3.582031-8 8s3.582031 8 8 8h288c4.417969 0 8-3.582031 8-8s-3.582031-8-8-8zm0 0"/><path d="m448 368h-288c-4.417969 0-8 3.582031-8 8s3.582031 8 8 8h288c4.417969 0 8-3.582031 8-8s-3.582031-8-8-8zm0 0"/><path d="m344 400h-184c-4.417969 0-8 3.582031-8 8s3.582031 8 8 8h184c4.417969 0 8-3.582031 8-8s-3.582031-8-8-8zm0 0"/><path d="m376 400h-8c-4.417969 0-8 3.582031-8 8s3.582031 8 8 8h8c4.417969 0 8-3.582031 8-8s-3.582031-8-8-8zm0 0"/></g></svg>
